<svg width="24" height="24" viewBox="0 0 24 24" fill="none" xmlns="http://www.w3.org/2000/svg">
<path d="M15 5H20C20.5523 5 21 5.44772 21 6V16C21 16.5523 20.5523 17 20 17H15.6056C14.6025 17 13.6658 17.5013 13.1094 18.3359L12 20V8C12 6.34315 13.3431 5 15 5Z" stroke="#828282" stroke-width="2" stroke-linecap="round" stroke-linejoin="round"/>
<path d="M9 5H4C3.44772 5 3 5.44772 3 6V16C3 16.5523 3.44772 17 4 17H8.39445C9.39751 17 10.3342 17.5013 10.8906 18.3359L12 20V8C12 6.34315 10.6569 5 9 5Z" stroke="#828282" stroke-width="2" stroke-linecap="round" stroke-linejoin="round"/>
</svg>
