<svg width="324" height="96" viewBox="0 0 324 96" fill="none" xmlns="http://www.w3.org/2000/svg">
<path d="M43.6585 9.70119L36.6585 3.57619C36.2815 3.24629 35.7185 3.24629 35.3415 3.57619L28.3415 9.70119C28.1245 9.89108 28 10.1654 28 10.4538V19C28 19.5523 28.4477 20 29 20H33C33.5523 20 34 19.5523 34 19V15C34 14.4477 34.4477 14 35 14H37C37.5523 14 38 14.4477 38 15V19C38 19.5523 38.4477 20 39 20H43C43.5523 20 44 19.5523 44 19V10.4538C44 10.1654 43.8755 9.89108 43.6585 9.70119Z" stroke="#828282" stroke-width="2" stroke-linecap="round" stroke-linejoin="round"/>
<g clip-path="url(#clip0_45_2631)">
<path d="M67 21H65C63.895 21 63 20.105 63 19V17" stroke="#828282" stroke-width="2" stroke-linecap="round" stroke-linejoin="round"/>
<path d="M63 7V5C63 3.895 63.895 3 65 3H67" stroke="#828282" stroke-width="2" stroke-linecap="round" stroke-linejoin="round"/>
<path d="M77 3H79C80.105 3 81 3.895 81 5V7" stroke="#828282" stroke-width="2" stroke-linecap="round" stroke-linejoin="round"/>
<path d="M81 17V19C81 20.105 80.105 21 79 21H77" stroke="#828282" stroke-width="2" stroke-linecap="round" stroke-linejoin="round"/>
<path d="M67 12H77" stroke="#828282" stroke-width="2" stroke-linecap="round" stroke-linejoin="round"/>
</g>
<path d="M106 17C109.866 17 113 13.866 113 10C113 6.13401 109.866 3 106 3C102.134 3 99 6.13401 99 10C99 13.866 102.134 17 106 17Z" stroke="#828282" stroke-width="2" stroke-linecap="round" stroke-linejoin="round"/>
<path d="M111 15L117 21" stroke="#828282" stroke-width="2" stroke-linecap="round" stroke-linejoin="round"/>
<path d="M147 5H152C152.552 5 153 5.44772 153 6V16C153 16.5523 152.552 17 152 17H147.606C146.602 17 145.666 17.5013 145.109 18.3359L144 20V8C144 6.34315 145.343 5 147 5Z" stroke="#828282" stroke-width="2" stroke-linecap="round" stroke-linejoin="round"/>
<path d="M141 5H136C135.448 5 135 5.44772 135 6V16C135 16.5523 135.448 17 136 17H140.394C141.398 17 142.334 17.5013 142.891 18.3359L144 20V8C144 6.34315 142.657 5 141 5Z" stroke="#828282" stroke-width="2" stroke-linecap="round" stroke-linejoin="round"/>
<path d="M180 21C184.971 21 189 16.9706 189 12C189 7.02944 184.971 3 180 3C175.029 3 171 7.02944 171 12C171 16.9706 175.029 21 180 21Z" stroke="#828282" stroke-width="2" stroke-linecap="round" stroke-linejoin="round"/>
<path d="M185.216 19.3323C183.935 17.9008 182.072 17 180 17C177.927 17 176.065 17.9008 174.783 19.3323" stroke="#828282" stroke-width="2" stroke-linecap="round" stroke-linejoin="round"/>
<path d="M180 14C181.657 14 183 12.6569 183 11C183 9.34315 181.657 8 180 8C178.343 8 177 9.34315 177 11C177 12.6569 178.343 14 180 14Z" stroke="#828282" stroke-width="2" stroke-linecap="round" stroke-linejoin="round"/>
<path d="M214 5.32573L209 6.7543L209 17.1327L214 17.847L214 5.32573Z" stroke="#828282" stroke-width="2"/>
<rect x="217" y="4" width="2" height="15" rx="1" fill="#828282"/>
<rect x="221" y="4" width="2" height="15" rx="1" fill="#828282"/>
<path d="M252 21C256.971 21 261 16.9706 261 12C261 7.02944 256.971 3 252 3C247.029 3 243 7.02944 243 12C243 16.9706 247.029 21 252 21Z" fill="#FA3737"/>
<rect x="257" y="11" width="2" height="10" rx="1" transform="rotate(90 257 11)" fill="white"/>
<path d="M36 51L39 48M39 48L36 45M39 48L28 48" stroke="#828282" stroke-width="2" stroke-linecap="round" stroke-linejoin="round"/>
<path d="M33 43V41C33 40.4477 33.4477 40 34 40H43C43.5523 40 44 40.4477 44 41V55C44 55.5523 43.5523 56 43 56H34C33.4477 56 33 55.5523 33 55V53" stroke="#828282" stroke-width="2" stroke-linecap="round" stroke-linejoin="round"/>
<path d="M74.5 42.5L71.5 39.5M71.5 39.5L68.5 42.5M71.5 39.5L71.5 50.5" stroke="#828282" stroke-width="2" stroke-linecap="round" stroke-linejoin="round"/>
<path d="M66.5 47.5L64.5 47.5C63.9477 47.5 63.5 47.8663 63.5 48.3182L63.5 55.6818C63.5 56.1337 63.9477 56.5 64.5 56.5L78.5 56.5C79.0523 56.5 79.5 56.1337 79.5 55.6818L79.5 48.3182C79.5 47.8663 79.0523 47.5 78.5 47.5L76.5 47.5" stroke="#828282" stroke-width="2" stroke-linecap="round" stroke-linejoin="round"/>
<path d="M108 52C110.209 52 112 50.2091 112 48C112 45.7909 110.209 44 108 44C105.791 44 104 45.7909 104 48C104 50.2091 105.791 52 108 52Z" stroke="#828282" stroke-width="2" stroke-linecap="round" stroke-linejoin="round"/>
<path d="M115.167 43.94L115.101 43.8262C114.92 43.5122 114.827 43.1547 114.833 42.7922L114.863 41.0133C114.869 40.6498 114.678 40.3116 114.363 40.1301L111.626 38.5531C111.312 38.372 110.924 38.3752 110.613 38.5615L109.094 39.4711C108.784 39.657 108.428 39.7552 108.067 39.7552H107.935C107.572 39.7552 107.216 39.6566 106.905 39.4699L105.379 38.5538C105.067 38.3663 104.678 38.3634 104.363 38.5462L101.635 40.1295C101.321 40.3115 101.131 40.6488 101.137 41.0112L101.167 42.7922C101.173 43.1547 101.08 43.5122 100.899 43.8262L100.834 43.9385C100.653 44.2527 100.389 44.5116 100.072 44.6875L98.5167 45.5491C98.1981 45.7258 98.0006 46.0617 98.0015 46.4261L98.0086 49.5779C98.0094 49.9401 98.206 50.2735 98.5225 50.4495L100.07 51.3104C100.388 51.4875 100.652 51.7483 100.833 52.0646L100.903 52.186C101.082 52.4985 101.173 52.8534 101.167 53.2133L101.137 54.9865C101.131 55.35 101.322 55.6882 101.637 55.8698L104.374 57.4468C104.688 57.6278 105.076 57.6246 105.387 57.4383L106.906 56.5287C107.217 56.3428 107.572 56.2446 107.934 56.2446H108.065C108.428 56.2446 108.784 56.3432 109.095 56.5299L110.621 57.4461C110.933 57.6335 111.323 57.6364 111.638 57.4536L114.366 55.8703C114.679 55.6884 114.87 55.351 114.863 54.9886L114.833 53.2077C114.827 52.8451 114.92 52.4877 115.101 52.1737L115.166 52.0613C115.348 51.7471 115.611 51.4882 115.929 51.3124L117.484 50.4507C117.802 50.2741 118 49.9381 117.999 49.5738L117.992 46.4219C117.991 46.0598 117.794 45.7264 117.478 45.5503L115.927 44.6874C115.611 44.5116 115.348 44.2533 115.167 43.94Z" stroke="#828282" stroke-width="2" stroke-linecap="round" stroke-linejoin="round"/>
<path d="M149 49H153V55C153 55.5523 152.552 56 152 56H149C148.448 56 148 55.5523 148 55V50C148 49.4477 148.448 49 149 49Z" stroke="#828282" stroke-width="2" stroke-linecap="round" stroke-linejoin="round"/>
<path d="M139 49H135V55C135 55.5523 135.448 56 136 56H139C139.552 56 140 55.5523 140 55V50C140 49.4477 139.552 49 139 49Z" stroke="#828282" stroke-width="2" stroke-linecap="round" stroke-linejoin="round"/>
<path d="M135 49C135 44.0294 139.029 40 144 40C148.971 40 153 44.0294 153 49" stroke="#828282" stroke-width="2" stroke-linecap="round" stroke-linejoin="round"/>
<path d="M183 53H177V54C177 55.6569 178.343 57 180 57C181.657 57 183 55.6569 183 54V53Z" stroke="#828282" stroke-width="2" stroke-linecap="round" stroke-linejoin="round"/>
<path d="M181.791 40.2823C181.224 40.0987 180.623 40 180 40C176.617 40 173.875 42.9102 173.875 46.5V49.9565C173.875 50.1216 173.813 50.2798 173.703 50.3966L173.256 50.8709C173.092 51.0451 173 51.2812 173 51.5275V52.0714C173 52.5843 173.392 53 173.875 53H186.125C186.608 53 187 52.5843 187 52.0714V51.5275C187 51.2812 186.908 51.0451 186.744 50.8709L186.297 50.3966C186.187 50.2798 186.125 50.1216 186.125 49.9565V46.5C186.125 46.3362 186.119 46.1737 186.108 46.0136" stroke="#828282" stroke-width="2" stroke-linecap="round" stroke-linejoin="round"/>
<path d="M189 42C189 44.2091 187.209 46 185 46C182.791 46 181 44.2091 181 42C181 39.7909 182.791 38 185 38C187.209 38 189 39.7909 189 42Z" fill="#F2994A"/>
<path d="M216 57C220.971 57 225 52.9706 225 48C225 43.0294 220.971 39 216 39C211.029 39 207 43.0294 207 48C207 52.9706 211.029 57 216 57Z" fill="#828282" stroke="#828282" stroke-width="2" stroke-linecap="round" stroke-linejoin="round"/>
<rect x="215" y="43" width="2" height="10" rx="1" fill="white"/>
<rect x="221" y="47" width="2" height="10" rx="1" transform="rotate(90 221 47)" fill="white"/>
<path d="M246 48L250.243 52.2426L258.728 43.7574" stroke="#828282" stroke-width="2" stroke-linecap="round" stroke-linejoin="round"/>
<path d="M292 52L284 44" stroke="#828282" stroke-width="2" stroke-linecap="round" stroke-linejoin="round"/>
<path d="M292 44L284 52" stroke="#828282" stroke-width="2" stroke-linecap="round" stroke-linejoin="round"/>
<path d="M28 92H32L43.2929 80.7071C43.6834 80.3166 43.6834 79.6834 43.2929 79.2929L40.7071 76.7071C40.3166 76.3166 39.6834 76.3166 39.2929 76.7071L28 88V92Z" stroke="#828282" stroke-width="2" stroke-linecap="round" stroke-linejoin="round"/>
<path d="M36 80L40 84" stroke="#828282" stroke-width="2" stroke-linecap="round" stroke-linejoin="round"/>
<path d="M72 92C72 92 63 86.9875 63 80.9723C63 74.9572 70 74.456 72 79.1622C74 74.456 81 74.9572 81 80.9723C81 86.9875 72 92 72 92Z" stroke="#828282" stroke-width="2" stroke-linecap="round" stroke-linejoin="round"/>
<g clip-path="url(#clip1_45_2631)">
<path d="M104.863 82.268C104.843 82.275 104.821 82.269 104.808 82.252C104.2 81.446 104.047 80.061 104.009 79.529C104.002 79.426 103.886 79.369 103.794 79.42C101.915 80.476 100.171 82.972 100.171 85.383C100.171 89.526 103.048 93 108 93C112.64 93 115.829 89.419 115.829 85.384C115.829 80.105 112.056 76.597 108.696 75.012C108.608 74.971 108.51 75.044 108.525 75.138C108.957 77.982 108.36 81.076 104.863 82.268V82.268Z" stroke="#828282" stroke-width="2" stroke-linecap="round" stroke-linejoin="round"/>
</g>
<g clip-path="url(#clip2_45_2631)">
<path d="M150.823 83.575L144.812 92.258C144.261 93.053 143.014 92.664 143.014 91.696V85.973H137.989C137.193 85.973 136.724 85.079 137.178 84.424L143.189 75.741C143.74 74.946 144.987 75.335 144.987 76.303V82.026H150.012C150.807 82.026 151.276 82.92 150.823 83.575Z" stroke="#828282" stroke-width="2" stroke-linecap="round" stroke-linejoin="round"/>
</g>
<path d="M171.093 81.4043H188.916" stroke="#828282" stroke-width="2" stroke-linecap="round" stroke-linejoin="round"/>
<path d="M184.442 85.3097H184.451" stroke="#828282" stroke-width="2" stroke-linecap="round" stroke-linejoin="round"/>
<path d="M180.005 85.3097H180.014" stroke="#828282" stroke-width="2" stroke-linecap="round" stroke-linejoin="round"/>
<path d="M175.558 85.3097H175.567" stroke="#828282" stroke-width="2" stroke-linecap="round" stroke-linejoin="round"/>
<path d="M184.442 89.1962H184.451" stroke="#828282" stroke-width="2" stroke-linecap="round" stroke-linejoin="round"/>
<path d="M180.005 89.1962H180.014" stroke="#828282" stroke-width="2" stroke-linecap="round" stroke-linejoin="round"/>
<path d="M175.558 89.1962H175.567" stroke="#828282" stroke-width="2" stroke-linecap="round" stroke-linejoin="round"/>
<path d="M184.044 74V77.2908" stroke="#828282" stroke-width="2" stroke-linecap="round" stroke-linejoin="round"/>
<path d="M175.965 74V77.2908" stroke="#828282" stroke-width="2" stroke-linecap="round" stroke-linejoin="round"/>
<path fill-rule="evenodd" clip-rule="evenodd" d="M184.238 75.5792H175.771C172.834 75.5792 171 77.2151 171 80.2222V89.2719C171 92.3262 172.834 94 175.771 94H184.229C187.175 94 189 92.3546 189 89.3475V80.2222C189.009 77.2151 187.184 75.5792 184.238 75.5792Z" stroke="#828282" stroke-width="2" stroke-linecap="round" stroke-linejoin="round"/>
<path d="M220.839 92.1642V78.5464" stroke="#828282" stroke-width="2" stroke-linecap="round" stroke-linejoin="round"/>
<path d="M224.917 88.0681L220.839 92.1648L216.762 88.0681" stroke="#828282" stroke-width="2" stroke-linecap="round" stroke-linejoin="round"/>
<path d="M210.911 75.8329V89.4507" stroke="#828282" stroke-width="2" stroke-linecap="round" stroke-linejoin="round"/>
<path d="M206.833 79.929L210.911 75.8323L214.989 79.929" stroke="#828282" stroke-width="2" stroke-linecap="round" stroke-linejoin="round"/>
<path d="M254 82L254 89" stroke="#828282" stroke-width="2" stroke-linecap="round" stroke-linejoin="round"/>
<path d="M250 82L250 89" stroke="#828282" stroke-width="2" stroke-linecap="round" stroke-linejoin="round"/>
<path d="M258 78H246V92C246 92.5523 246.448 93 247 93H257C257.552 93 258 92.5523 258 92V78Z" stroke="#828282" stroke-width="2" stroke-linecap="round" stroke-linejoin="round"/>
<path d="M244 78H260" stroke="#828282" stroke-width="2" stroke-linecap="round" stroke-linejoin="round"/>
<path d="M255 75H249C248.448 75 248 75.4477 248 76V78H256V76C256 75.4477 255.552 75 255 75Z" stroke="#828282" stroke-width="2" stroke-linecap="round" stroke-linejoin="round"/>
<path d="M286 88L297 88" stroke="#828282" stroke-width="2" stroke-linecap="round" stroke-linejoin="round"/>
<path d="M279 88H280.5" stroke="#828282" stroke-width="2" stroke-linecap="round" stroke-linejoin="round"/>
<path d="M283.5 90.5C284.881 90.5 286 89.3807 286 88C286 86.6193 284.881 85.5 283.5 85.5C282.119 85.5 281 86.6193 281 88C281 89.3807 282.119 90.5 283.5 90.5Z" stroke="#828282" stroke-width="2" stroke-linecap="round" stroke-linejoin="round"/>
<path d="M295.5 81H297" stroke="#828282" stroke-width="2" stroke-linecap="round" stroke-linejoin="round"/>
<path d="M279 81H290" stroke="#828282" stroke-width="2" stroke-linecap="round" stroke-linejoin="round"/>
<path d="M292.5 83.5C293.881 83.5 295 82.3807 295 81C295 79.6193 293.881 78.5 292.5 78.5C291.119 78.5 290 79.6193 290 81C290 82.3807 291.119 83.5 292.5 83.5Z" stroke="#828282" stroke-width="2" stroke-linecap="round" stroke-linejoin="round"/>
<defs>
<clipPath id="clip0_45_2631">
<rect width="24" height="24" fill="white" transform="translate(60)"/>
</clipPath>
<clipPath id="clip1_45_2631">
<rect width="24" height="24" fill="white" transform="translate(96 72)"/>
</clipPath>
<clipPath id="clip2_45_2631">
<rect width="24" height="24" fill="white" transform="translate(132 72)"/>
</clipPath>
</defs>
</svg>
