<svg width="216" height="90" viewBox="0 0 216 90" fill="none" xmlns="http://www.w3.org/2000/svg">
<path fill-rule="evenodd" clip-rule="evenodd" d="M46 82H137C137.515 82 138.017 81.9444 138.5 81.8389C138.983 81.9444 139.485 82 140 82H192C195.866 82 199 78.866 199 75C199 71.134 195.866 68 192 68H186C182.134 68 179 64.866 179 61C179 57.134 182.134 54 186 54H205C208.866 54 212 50.866 212 47C212 43.134 208.866 40 205 40H183C186.866 40 190 36.866 190 33C190 29.134 186.866 26 183 26H119C122.866 26 126 22.866 126 19C126 15.134 122.866 12 119 12H62C58.134 12 55 15.134 55 19C55 22.866 58.134 26 62 26H22C18.134 26 15 29.134 15 33C15 36.866 18.134 40 22 40H47C50.866 40 54 43.134 54 47C54 50.866 50.866 54 47 54H7C3.13401 54 0 57.134 0 61C0 64.866 3.13401 68 7 68H46C42.134 68 39 71.134 39 75C39 78.866 42.134 82 46 82ZM209 82C212.866 82 216 78.866 216 75C216 71.134 212.866 68 209 68C205.134 68 202 71.134 202 75C202 78.866 205.134 82 209 82Z" fill="#F3F7FF"/>
<path fill-rule="evenodd" clip-rule="evenodd" d="M96.1186 60.3066C96.0404 60.8599 96 61.4252 96 62C96 68.6274 101.373 74 108 74C114.627 74 120 68.6274 120 62C120 61.4252 119.96 60.8599 119.881 60.3066H149V87C149 88.6569 147.657 90 146 90H70C68.3431 90 67 88.6569 67 87V60.3066H96.1186Z" fill="white"/>
<path fill-rule="evenodd" clip-rule="evenodd" d="M121 60C121 67.1797 115.18 73 108 73C100.82 73 95 67.1797 95 60C95 59.7674 95.0061 59.5362 95.0182 59.3066H67L76.5604 31.0389C76.9726 29.8202 78.1159 29 79.4023 29H136.598C137.884 29 139.027 29.8202 139.44 31.0389L149 59.3066H120.982C120.994 59.5362 121 59.7674 121 60Z" fill="white"/>
<path fill-rule="evenodd" clip-rule="evenodd" d="M119.098 60.9545C119.098 66.5025 114.129 72 108 72C101.871 72 96.9024 66.5025 96.9024 60.9545C96.9024 60.7748 96.9077 59.5962 96.918 59.4188H76L84.1614 39.5755C84.5132 38.6338 85.4891 38 86.5873 38H129.413C130.511 38 131.487 38.6338 131.839 39.5755L140 59.4188H119.082C119.092 59.5962 119.098 60.7748 119.098 60.9545Z" fill="#E8F0FE"/>
<path d="M68.25 59.5123L67.0659 59.1118L67 59.3066V59.5123H68.25ZM147.75 59.5123H149V59.3066L148.934 59.1118L147.75 59.5123ZM138.255 31.4393L139.44 31.0389L138.255 31.4393ZM77.7446 31.4393L78.9287 31.8398V31.8398L77.7446 31.4393ZM73.5737 57.75C72.8834 57.75 72.3237 58.3096 72.3237 59C72.3237 59.6904 72.8834 60.25 73.5737 60.25V57.75ZM76 60.25C76.6904 60.25 77.25 59.6904 77.25 59C77.25 58.3096 76.6904 57.75 76 57.75V60.25ZM81 57.75C80.3096 57.75 79.75 58.3096 79.75 59C79.75 59.6904 80.3096 60.25 81 60.25V57.75ZM147 60.25C147.69 60.25 148.25 59.6904 148.25 59C148.25 58.3096 147.69 57.75 147 57.75V60.25ZM67 59.5123V86H69.5V59.5123H67ZM67 86C67 87.6569 68.3431 89 70 89V86.5C69.7239 86.5 69.5 86.2761 69.5 86H67ZM70 89H146V86.5H70V89ZM146 89C147.657 89 149 87.6569 149 86H146.5C146.5 86.2761 146.276 86.5 146 86.5V89ZM149 86V59.5123H146.5V86H149ZM148.934 59.1118L139.44 31.0389L137.071 31.8398L146.566 59.9128L148.934 59.1118ZM139.44 31.0389C139.027 29.8202 137.884 29 136.598 29V31.5C136.812 31.5 137.003 31.6367 137.071 31.8398L139.44 31.0389ZM136.598 29H79.4023V31.5H136.598V29ZM79.4023 29C78.1158 29 76.9726 29.8202 76.5604 31.0389L78.9287 31.8398C78.9974 31.6367 79.1879 31.5 79.4023 31.5V29ZM76.5604 31.0389L67.0659 59.1118L69.4341 59.9128L78.9287 31.8398L76.5604 31.0389ZM73.5737 60.25H76V57.75H73.5737V60.25ZM81 60.25C81.0077 60.25 81.0154 60.25 81.0231 60.25C81.0308 60.25 81.0385 60.25 81.0461 60.25C81.0538 60.25 81.0615 60.25 81.0692 60.25C81.0769 60.25 81.0846 60.25 81.0923 60.25C81.1 60.25 81.1077 60.25 81.1154 60.25C81.1231 60.25 81.1308 60.25 81.1385 60.25C81.1462 60.25 81.1539 60.25 81.1616 60.25C81.1693 60.25 81.177 60.25 81.1848 60.25C81.1925 60.25 81.2002 60.25 81.2079 60.25C81.2156 60.25 81.2233 60.25 81.231 60.25C81.2387 60.25 81.2464 60.25 81.2542 60.25C81.2619 60.25 81.2696 60.25 81.2773 60.25C81.285 60.25 81.2927 60.25 81.3005 60.25C81.3082 60.25 81.3159 60.25 81.3236 60.25C81.3313 60.25 81.3391 60.25 81.3468 60.25C81.3545 60.25 81.3622 60.25 81.37 60.25C81.3777 60.25 81.3854 60.25 81.3932 60.25C81.4009 60.25 81.4086 60.25 81.4163 60.25C81.4241 60.25 81.4318 60.25 81.4395 60.25C81.4473 60.25 81.455 60.25 81.4627 60.25C81.4705 60.25 81.4782 60.25 81.486 60.25C81.4937 60.25 81.5014 60.25 81.5092 60.25C81.5169 60.25 81.5247 60.25 81.5324 60.25C81.5401 60.25 81.5479 60.25 81.5556 60.25C81.5634 60.25 81.5711 60.25 81.5789 60.25C81.5866 60.25 81.5944 60.25 81.6021 60.25C81.6099 60.25 81.6176 60.25 81.6254 60.25C81.6331 60.25 81.6409 60.25 81.6486 60.25C81.6564 60.25 81.6642 60.25 81.6719 60.25C81.6797 60.25 81.6874 60.25 81.6952 60.25C81.7029 60.25 81.7107 60.25 81.7185 60.25C81.7262 60.25 81.734 60.25 81.7418 60.25C81.7495 60.25 81.7573 60.25 81.7651 60.25C81.7728 60.25 81.7806 60.25 81.7884 60.25C81.7961 60.25 81.8039 60.25 81.8117 60.25C81.8194 60.25 81.8272 60.25 81.835 60.25C81.8428 60.25 81.8505 60.25 81.8583 60.25C81.8661 60.25 81.8739 60.25 81.8817 60.25C81.8894 60.25 81.8972 60.25 81.905 60.25C81.9128 60.25 81.9206 60.25 81.9283 60.25C81.9361 60.25 81.9439 60.25 81.9517 60.25C81.9595 60.25 81.9673 60.25 81.9751 60.25C81.9828 60.25 81.9906 60.25 81.9984 60.25C82.0062 60.25 82.014 60.25 82.0218 60.25C82.0296 60.25 82.0374 60.25 82.0452 60.25C82.053 60.25 82.0608 60.25 82.0686 60.25C82.0764 60.25 82.0842 60.25 82.092 60.25C82.0998 60.25 82.1076 60.25 82.1154 60.25C82.1232 60.25 82.131 60.25 82.1388 60.25C82.1466 60.25 82.1544 60.25 82.1622 60.25C82.17 60.25 82.1778 60.25 82.1856 60.25C82.1934 60.25 82.2013 60.25 82.2091 60.25C82.2169 60.25 82.2247 60.25 82.2325 60.25C82.2403 60.25 82.2481 60.25 82.256 60.25C82.2638 60.25 82.2716 60.25 82.2794 60.25C82.2872 60.25 82.2951 60.25 82.3029 60.25C82.3107 60.25 82.3185 60.25 82.3263 60.25C82.3342 60.25 82.342 60.25 82.3498 60.25C82.3576 60.25 82.3655 60.25 82.3733 60.25C82.3811 60.25 82.389 60.25 82.3968 60.25C82.4046 60.25 82.4125 60.25 82.4203 60.25C82.4281 60.25 82.436 60.25 82.4438 60.25C82.4516 60.25 82.4595 60.25 82.4673 60.25C82.4751 60.25 82.483 60.25 82.4908 60.25C82.4987 60.25 82.5065 60.25 82.5144 60.25C82.5222 60.25 82.53 60.25 82.5379 60.25C82.5457 60.25 82.5536 60.25 82.5614 60.25C82.5693 60.25 82.5771 60.25 82.585 60.25C82.5928 60.25 82.6007 60.25 82.6085 60.25C82.6164 60.25 82.6242 60.25 82.6321 60.25C82.6399 60.25 82.6478 60.25 82.6557 60.25C82.6635 60.25 82.6714 60.25 82.6792 60.25C82.6871 60.25 82.695 60.25 82.7028 60.25C82.7107 60.25 82.7185 60.25 82.7264 60.25C82.7343 60.25 82.7421 60.25 82.75 60.25C82.7579 60.25 82.7657 60.25 82.7736 60.25C82.7815 60.25 82.7893 60.25 82.7972 60.25C82.8051 60.25 82.813 60.25 82.8208 60.25C82.8287 60.25 82.8366 60.25 82.8445 60.25C82.8523 60.25 82.8602 60.25 82.8681 60.25C82.876 60.25 82.8839 60.25 82.8917 60.25C82.8996 60.25 82.9075 60.25 82.9154 60.25C82.9233 60.25 82.9312 60.25 82.939 60.25C82.9469 60.25 82.9548 60.25 82.9627 60.25C82.9706 60.25 82.9785 60.25 82.9864 60.25C82.9943 60.25 83.0022 60.25 83.01 60.25C83.0179 60.25 83.0258 60.25 83.0337 60.25C83.0416 60.25 83.0495 60.25 83.0574 60.25C83.0653 60.25 83.0732 60.25 83.0811 60.25C83.089 60.25 83.0969 60.25 83.1048 60.25C83.1127 60.25 83.1206 60.25 83.1285 60.25C83.1364 60.25 83.1443 60.25 83.1523 60.25C83.1602 60.25 83.1681 60.25 83.176 60.25C83.1839 60.25 83.1918 60.25 83.1997 60.25C83.2076 60.25 83.2155 60.25 83.2235 60.25C83.2314 60.25 83.2393 60.25 83.2472 60.25C83.2551 60.25 83.263 60.25 83.271 60.25C83.2789 60.25 83.2868 60.25 83.2947 60.25C83.3026 60.25 83.3106 60.25 83.3185 60.25C83.3264 60.25 83.3343 60.25 83.3423 60.25C83.3502 60.25 83.3581 60.25 83.366 60.25C83.374 60.25 83.3819 60.25 83.3898 60.25C83.3978 60.25 83.4057 60.25 83.4136 60.25C83.4216 60.25 83.4295 60.25 83.4374 60.25C83.4454 60.25 83.4533 60.25 83.4612 60.25C83.4692 60.25 83.4771 60.25 83.4851 60.25C83.493 60.25 83.5009 60.25 83.5089 60.25C83.5168 60.25 83.5248 60.25 83.5327 60.25C83.5407 60.25 83.5486 60.25 83.5566 60.25C83.5645 60.25 83.5725 60.25 83.5804 60.25C83.5884 60.25 83.5963 60.25 83.6043 60.25C83.6122 60.25 83.6202 60.25 83.6281 60.25C83.6361 60.25 83.644 60.25 83.652 60.25C83.66 60.25 83.6679 60.25 83.6759 60.25C83.6838 60.25 83.6918 60.25 83.6998 60.25C83.7077 60.25 83.7157 60.25 83.7236 60.25C83.7316 60.25 83.7396 60.25 83.7475 60.25C83.7555 60.25 83.7635 60.25 83.7714 60.25C83.7794 60.25 83.7874 60.25 83.7954 60.25C83.8033 60.25 83.8113 60.25 83.8193 60.25C83.8272 60.25 83.8352 60.25 83.8432 60.25C83.8512 60.25 83.8592 60.25 83.8671 60.25C83.8751 60.25 83.8831 60.25 83.8911 60.25C83.8991 60.25 83.907 60.25 83.915 60.25C83.923 60.25 83.931 60.25 83.939 60.25C83.947 60.25 83.9549 60.25 83.9629 60.25C83.9709 60.25 83.9789 60.25 83.9869 60.25C83.9949 60.25 84.0029 60.25 84.0109 60.25C84.0189 60.25 84.0269 60.25 84.0349 60.25C84.0429 60.25 84.0509 60.25 84.0589 60.25C84.0668 60.25 84.0748 60.25 84.0828 60.25C84.0908 60.25 84.0988 60.25 84.1069 60.25C84.1149 60.25 84.1229 60.25 84.1309 60.25C84.1389 60.25 84.1469 60.25 84.1549 60.25C84.1629 60.25 84.1709 60.25 84.1789 60.25C84.1869 60.25 84.1949 60.25 84.2029 60.25C84.211 60.25 84.219 60.25 84.227 60.25C84.235 60.25 84.243 60.25 84.251 60.25C84.259 60.25 84.2671 60.25 84.2751 60.25C84.2831 60.25 84.2911 60.25 84.2991 60.25C84.3072 60.25 84.3152 60.25 84.3232 60.25C84.3312 60.25 84.3393 60.25 84.3473 60.25C84.3553 60.25 84.3633 60.25 84.3714 60.25C84.3794 60.25 84.3874 60.25 84.3955 60.25C84.4035 60.25 84.4115 60.25 84.4196 60.25C84.4276 60.25 84.4356 60.25 84.4437 60.25C84.4517 60.25 84.4597 60.25 84.4678 60.25C84.4758 60.25 84.4838 60.25 84.4919 60.25C84.4999 60.25 84.508 60.25 84.516 60.25C84.5241 60.25 84.5321 60.25 84.5401 60.25C84.5482 60.25 84.5562 60.25 84.5643 60.25C84.5723 60.25 84.5804 60.25 84.5884 60.25C84.5965 60.25 84.6045 60.25 84.6126 60.25C84.6206 60.25 84.6287 60.25 84.6367 60.25C84.6448 60.25 84.6529 60.25 84.6609 60.25C84.669 60.25 84.677 60.25 84.6851 60.25C84.6931 60.25 84.7012 60.25 84.7093 60.25C84.7173 60.25 84.7254 60.25 84.7335 60.25C84.7415 60.25 84.7496 60.25 84.7577 60.25C84.7657 60.25 84.7738 60.25 84.7819 60.25C84.7899 60.25 84.798 60.25 84.8061 60.25C84.8141 60.25 84.8222 60.25 84.8303 60.25C84.8384 60.25 84.8464 60.25 84.8545 60.25C84.8626 60.25 84.8707 60.25 84.8787 60.25C84.8868 60.25 84.8949 60.25 84.903 60.25C84.9111 60.25 84.9192 60.25 84.9272 60.25C84.9353 60.25 84.9434 60.25 84.9515 60.25C84.9596 60.25 84.9677 60.25 84.9757 60.25C84.9838 60.25 84.9919 60.25 85 60.25C85.0081 60.25 85.0162 60.25 85.0243 60.25C85.0324 60.25 85.0405 60.25 85.0486 60.25C85.0567 60.25 85.0648 60.25 85.0729 60.25C85.081 60.25 85.0891 60.25 85.0972 60.25C85.1053 60.25 85.1134 60.25 85.1215 60.25C85.1296 60.25 85.1377 60.25 85.1458 60.25C85.1539 60.25 85.162 60.25 85.1701 60.25C85.1782 60.25 85.1863 60.25 85.1944 60.25C85.2025 60.25 85.2106 60.25 85.2188 60.25C85.2269 60.25 85.235 60.25 85.2431 60.25C85.2512 60.25 85.2593 60.25 85.2674 60.25C85.2756 60.25 85.2837 60.25 85.2918 60.25C85.2999 60.25 85.308 60.25 85.3162 60.25C85.3243 60.25 85.3324 60.25 85.3405 60.25C85.3486 60.25 85.3568 60.25 85.3649 60.25C85.373 60.25 85.3811 60.25 85.3893 60.25C85.3974 60.25 85.4055 60.25 85.4137 60.25C85.4218 60.25 85.4299 60.25 85.4381 60.25C85.4462 60.25 85.4543 60.25 85.4625 60.25C85.4706 60.25 85.4787 60.25 85.4869 60.25C85.495 60.25 85.5032 60.25 85.5113 60.25C85.5194 60.25 85.5276 60.25 85.5357 60.25C85.5439 60.25 85.552 60.25 85.5602 60.25C85.5683 60.25 85.5764 60.25 85.5846 60.25C85.5927 60.25 85.6009 60.25 85.609 60.25C85.6172 60.25 85.6253 60.25 85.6335 60.25C85.6416 60.25 85.6498 60.25 85.658 60.25C85.6661 60.25 85.6743 60.25 85.6824 60.25C85.6906 60.25 85.6987 60.25 85.7069 60.25C85.7151 60.25 85.7232 60.25 85.7314 60.25C85.7395 60.25 85.7477 60.25 85.7559 60.25C85.764 60.25 85.7722 60.25 85.7804 60.25C85.7885 60.25 85.7967 60.25 85.8049 60.25C85.813 60.25 85.8212 60.25 85.8294 60.25C85.8376 60.25 85.8457 60.25 85.8539 60.25C85.8621 60.25 85.8702 60.25 85.8784 60.25C85.8866 60.25 85.8948 60.25 85.903 60.25C85.9111 60.25 85.9193 60.25 85.9275 60.25C85.9357 60.25 85.9439 60.25 85.952 60.25C85.9602 60.25 85.9684 60.25 85.9766 60.25C85.9848 60.25 85.993 60.25 86.0012 60.25C86.0093 60.25 86.0175 60.25 86.0257 60.25C86.0339 60.25 86.0421 60.25 86.0503 60.25C86.0585 60.25 86.0667 60.25 86.0749 60.25C86.0831 60.25 86.0913 60.25 86.0995 60.25C86.1077 60.25 86.1159 60.25 86.1241 60.25C86.1323 60.25 86.1405 60.25 86.1487 60.25C86.1569 60.25 86.1651 60.25 86.1733 60.25C86.1815 60.25 86.1897 60.25 86.1979 60.25C86.2061 60.25 86.2143 60.25 86.2225 60.25C86.2307 60.25 86.2389 60.25 86.2472 60.25C86.2554 60.25 86.2636 60.25 86.2718 60.25C86.28 60.25 86.2882 60.25 86.2964 60.25C86.3047 60.25 86.3129 60.25 86.3211 60.25C86.3293 60.25 86.3375 60.25 86.3458 60.25C86.354 60.25 86.3622 60.25 86.3704 60.25C86.3786 60.25 86.3869 60.25 86.3951 60.25C86.4033 60.25 86.4115 60.25 86.4198 60.25C86.428 60.25 86.4362 60.25 86.4445 60.25C86.4527 60.25 86.4609 60.25 86.4692 60.25C86.4774 60.25 86.4856 60.25 86.4939 60.25C86.5021 60.25 86.5103 60.25 86.5186 60.25C86.5268 60.25 86.5351 60.25 86.5433 60.25C86.5515 60.25 86.5598 60.25 86.568 60.25C86.5763 60.25 86.5845 60.25 86.5927 60.25C86.601 60.25 86.6092 60.25 86.6175 60.25C86.6257 60.25 86.634 60.25 86.6422 60.25C86.6505 60.25 86.6587 60.25 86.667 60.25C86.6752 60.25 86.6835 60.25 86.6917 60.25C86.7 60.25 86.7083 60.25 86.7165 60.25C86.7248 60.25 86.733 60.25 86.7413 60.25C86.7495 60.25 86.7578 60.25 86.7661 60.25C86.7743 60.25 86.7826 60.25 86.7909 60.25C86.7991 60.25 86.8074 60.25 86.8157 60.25C86.8239 60.25 86.8322 60.25 86.8405 60.25C86.8487 60.25 86.857 60.25 86.8653 60.25C86.8735 60.25 86.8818 60.25 86.8901 60.25C86.8984 60.25 86.9066 60.25 86.9149 60.25C86.9232 60.25 86.9315 60.25 86.9397 60.25C86.948 60.25 86.9563 60.25 86.9646 60.25C86.9729 60.25 86.9811 60.25 86.9894 60.25C86.9977 60.25 87.006 60.25 87.0143 60.25C87.0226 60.25 87.0309 60.25 87.0391 60.25C87.0474 60.25 87.0557 60.25 87.064 60.25C87.0723 60.25 87.0806 60.25 87.0889 60.25C87.0972 60.25 87.1055 60.25 87.1138 60.25C87.1221 60.25 87.1304 60.25 87.1387 60.25C87.147 60.25 87.1553 60.25 87.1636 60.25C87.1719 60.25 87.1802 60.25 87.1885 60.25C87.1968 60.25 87.2051 60.25 87.2134 60.25C87.2217 60.25 87.23 60.25 87.2383 60.25C87.2466 60.25 87.2549 60.25 87.2632 60.25C87.2715 60.25 87.2798 60.25 87.2881 60.25C87.2964 60.25 87.3048 60.25 87.3131 60.25C87.3214 60.25 87.3297 60.25 87.338 60.25C87.3463 60.25 87.3547 60.25 87.363 60.25C87.3713 60.25 87.3796 60.25 87.3879 60.25C87.3963 60.25 87.4046 60.25 87.4129 60.25C87.4212 60.25 87.4296 60.25 87.4379 60.25C87.4462 60.25 87.4545 60.25 87.4629 60.25C87.4712 60.25 87.4795 60.25 87.4878 60.25C87.4962 60.25 87.5045 60.25 87.5128 60.25C87.5212 60.25 87.5295 60.25 87.5378 60.25C87.5462 60.25 87.5545 60.25 87.5629 60.25C87.5712 60.25 87.5795 60.25 87.5879 60.25C87.5962 60.25 87.6046 60.25 87.6129 60.25C87.6212 60.25 87.6296 60.25 87.6379 60.25C87.6463 60.25 87.6546 60.25 87.663 60.25C87.6713 60.25 87.6797 60.25 87.688 60.25C87.6964 60.25 87.7047 60.25 87.7131 60.25C87.7214 60.25 87.7298 60.25 87.7381 60.25C87.7465 60.25 87.7548 60.25 87.7632 60.25C87.7716 60.25 87.7799 60.25 87.7883 60.25C87.7966 60.25 87.805 60.25 87.8134 60.25C87.8217 60.25 87.8301 60.25 87.8384 60.25C87.8468 60.25 87.8552 60.25 87.8635 60.25C87.8719 60.25 87.8803 60.25 87.8886 60.25C87.897 60.25 87.9054 60.25 87.9137 60.25C87.9221 60.25 87.9305 60.25 87.9389 60.25C87.9472 60.25 87.9556 60.25 87.964 60.25C87.9724 60.25 87.9807 60.25 87.9891 60.25C87.9975 60.25 88.0059 60.25 88.0143 60.25C88.0226 60.25 88.031 60.25 88.0394 60.25C88.0478 60.25 88.0562 60.25 88.0646 60.25C88.0729 60.25 88.0813 60.25 88.0897 60.25C88.0981 60.25 88.1065 60.25 88.1149 60.25C88.1233 60.25 88.1317 60.25 88.1401 60.25C88.1485 60.25 88.1568 60.25 88.1652 60.25C88.1736 60.25 88.182 60.25 88.1904 60.25C88.1988 60.25 88.2072 60.25 88.2156 60.25C88.224 60.25 88.2324 60.25 88.2408 60.25C88.2492 60.25 88.2576 60.25 88.266 60.25C88.2744 60.25 88.2828 60.25 88.2913 60.25C88.2997 60.25 88.3081 60.25 88.3165 60.25C88.3249 60.25 88.3333 60.25 88.3417 60.25C88.3501 60.25 88.3585 60.25 88.3669 60.25C88.3754 60.25 88.3838 60.25 88.3922 60.25C88.4006 60.25 88.409 60.25 88.4174 60.25C88.4259 60.25 88.4343 60.25 88.4427 60.25C88.4511 60.25 88.4596 60.25 88.468 60.25C88.4764 60.25 88.4848 60.25 88.4932 60.25C88.5017 60.25 88.5101 60.25 88.5185 60.25C88.527 60.25 88.5354 60.25 88.5438 60.25C88.5522 60.25 88.5607 60.25 88.5691 60.25C88.5775 60.25 88.586 60.25 88.5944 60.25C88.6029 60.25 88.6113 60.25 88.6197 60.25C88.6282 60.25 88.6366 60.25 88.645 60.25C88.6535 60.25 88.6619 60.25 88.6704 60.25C88.6788 60.25 88.6873 60.25 88.6957 60.25C88.7041 60.25 88.7126 60.25 88.721 60.25C88.7295 60.25 88.7379 60.25 88.7464 60.25C88.7548 60.25 88.7633 60.25 88.7717 60.25C88.7802 60.25 88.7886 60.25 88.7971 60.25C88.8055 60.25 88.814 60.25 88.8225 60.25C88.8309 60.25 88.8394 60.25 88.8478 60.25C88.8563 60.25 88.8648 60.25 88.8732 60.25C88.8817 60.25 88.8901 60.25 88.8986 60.25C88.9071 60.25 88.9155 60.25 88.924 60.25C88.9325 60.25 88.9409 60.25 88.9494 60.25C88.9579 60.25 88.9663 60.25 88.9748 60.25C88.9833 60.25 88.9918 60.25 89.0002 60.25C89.0087 60.25 89.0172 60.25 89.0257 60.25C89.0341 60.25 89.0426 60.25 89.0511 60.25C89.0596 60.25 89.068 60.25 89.0765 60.25C89.085 60.25 89.0935 60.25 89.102 60.25C89.1105 60.25 89.1189 60.25 89.1274 60.25C89.1359 60.25 89.1444 60.25 89.1529 60.25C89.1614 60.25 89.1699 60.25 89.1783 60.25C89.1868 60.25 89.1953 60.25 89.2038 60.25C89.2123 60.25 89.2208 60.25 89.2293 60.25C89.2378 60.25 89.2463 60.25 89.2548 60.25C89.2633 60.25 89.2718 60.25 89.2803 60.25C89.2888 60.25 89.2973 60.25 89.3058 60.25C89.3143 60.25 89.3228 60.25 89.3313 60.25C89.3398 60.25 89.3483 60.25 89.3568 60.25C89.3653 60.25 89.3738 60.25 89.3823 60.25C89.3908 60.25 89.3994 60.25 89.4079 60.25C89.4164 60.25 89.4249 60.25 89.4334 60.25C89.4419 60.25 89.4504 60.25 89.459 60.25C89.4675 60.25 89.476 60.25 89.4845 60.25C89.493 60.25 89.5015 60.25 89.5101 60.25C89.5186 60.25 89.5271 60.25 89.5356 60.25C89.5442 60.25 89.5527 60.25 89.5612 60.25C89.5697 60.25 89.5783 60.25 89.5868 60.25C89.5953 60.25 89.6038 60.25 89.6124 60.25C89.6209 60.25 89.6294 60.25 89.638 60.25C89.6465 60.25 89.655 60.25 89.6636 60.25C89.6721 60.25 89.6806 60.25 89.6892 60.25C89.6977 60.25 89.7063 60.25 89.7148 60.25C89.7233 60.25 89.7319 60.25 89.7404 60.25C89.749 60.25 89.7575 60.25 89.7661 60.25C89.7746 60.25 89.7831 60.25 89.7917 60.25C89.8002 60.25 89.8088 60.25 89.8173 60.25C89.8259 60.25 89.8344 60.25 89.843 60.25C89.8515 60.25 89.8601 60.25 89.8686 60.25C89.8772 60.25 89.8858 60.25 89.8943 60.25C89.9029 60.25 89.9114 60.25 89.92 60.25C89.9285 60.25 89.9371 60.25 89.9457 60.25C89.9542 60.25 89.9628 60.25 89.9714 60.25C89.9799 60.25 89.9885 60.25 89.997 60.25C90.0056 60.25 90.0142 60.25 90.0228 60.25C90.0313 60.25 90.0399 60.25 90.0485 60.25C90.057 60.25 90.0656 60.25 90.0742 60.25C90.0828 60.25 90.0913 60.25 90.0999 60.25C90.1085 60.25 90.1171 60.25 90.1256 60.25C90.1342 60.25 90.1428 60.25 90.1514 60.25C90.16 60.25 90.1685 60.25 90.1771 60.25C90.1857 60.25 90.1943 60.25 90.2029 60.25C90.2115 60.25 90.22 60.25 90.2286 60.25C90.2372 60.25 90.2458 60.25 90.2544 60.25C90.263 60.25 90.2716 60.25 90.2802 60.25C90.2888 60.25 90.2974 60.25 90.3059 60.25C90.3145 60.25 90.3231 60.25 90.3317 60.25C90.3403 60.25 90.3489 60.25 90.3575 60.25C90.3661 60.25 90.3747 60.25 90.3833 60.25C90.3919 60.25 90.4005 60.25 90.4091 60.25C90.4177 60.25 90.4264 60.25 90.435 60.25C90.4436 60.25 90.4522 60.25 90.4608 60.25C90.4694 60.25 90.478 60.25 90.4866 60.25C90.4952 60.25 90.5038 60.25 90.5125 60.25C90.5211 60.25 90.5297 60.25 90.5383 60.25C90.5469 60.25 90.5555 60.25 90.5641 60.25C90.5728 60.25 90.5814 60.25 90.59 60.25C90.5986 60.25 90.6073 60.25 90.6159 60.25C90.6245 60.25 90.6331 60.25 90.6417 60.25C90.6504 60.25 90.659 60.25 90.6676 60.25C90.6763 60.25 90.6849 60.25 90.6935 60.25C90.7021 60.25 90.7108 60.25 90.7194 60.25C90.728 60.25 90.7367 60.25 90.7453 60.25C90.7539 60.25 90.7626 60.25 90.7712 60.25C90.7799 60.25 90.7885 60.25 90.7971 60.25C90.8058 60.25 90.8144 60.25 90.8231 60.25C90.8317 60.25 90.8403 60.25 90.849 60.25C90.8576 60.25 90.8663 60.25 90.8749 60.25C90.8836 60.25 90.8922 60.25 90.9009 60.25C90.9095 60.25 90.9182 60.25 90.9268 60.25C90.9355 60.25 90.9441 60.25 90.9528 60.25C90.9614 60.25 90.9701 60.25 90.9788 60.25C90.9874 60.25 90.9961 60.25 91.0047 60.25C91.0134 60.25 91.022 60.25 91.0307 60.25C91.0394 60.25 91.048 60.25 91.0567 60.25C91.0654 60.25 91.074 60.25 91.0827 60.25C91.0914 60.25 91.1 60.25 91.1087 60.25C91.1174 60.25 91.126 60.25 91.1347 60.25C91.1434 60.25 91.152 60.25 91.1607 60.25C91.1694 60.25 91.1781 60.25 91.1867 60.25C91.1954 60.25 91.2041 60.25 91.2128 60.25C91.2214 60.25 91.2301 60.25 91.2388 60.25C91.2475 60.25 91.2562 60.25 91.2649 60.25C91.2735 60.25 91.2822 60.25 91.2909 60.25C91.2996 60.25 91.3083 60.25 91.317 60.25C91.3256 60.25 91.3343 60.25 91.343 60.25C91.3517 60.25 91.3604 60.25 91.3691 60.25C91.3778 60.25 91.3865 60.25 91.3952 60.25C91.4039 60.25 91.4126 60.25 91.4213 60.25C91.43 60.25 91.4387 60.25 91.4474 60.25C91.4561 60.25 91.4648 60.25 91.4735 60.25C91.4822 60.25 91.4909 60.25 91.4996 60.25C91.5083 60.25 91.517 60.25 91.5257 60.25C91.5344 60.25 91.5431 60.25 91.5518 60.25C91.5605 60.25 91.5692 60.25 91.5779 60.25C91.5867 60.25 91.5954 60.25 91.6041 60.25C91.6128 60.25 91.6215 60.25 91.6302 60.25C91.6389 60.25 91.6477 60.25 91.6564 60.25C91.6651 60.25 91.6738 60.25 91.6825 60.25C91.6913 60.25 91.7 60.25 91.7087 60.25C91.7174 60.25 91.7262 60.25 91.7349 60.25C91.7436 60.25 91.7523 60.25 91.7611 60.25C91.7698 60.25 91.7785 60.25 91.7872 60.25C91.796 60.25 91.8047 60.25 91.8134 60.25C91.8222 60.25 91.8309 60.25 91.8396 60.25C91.8484 60.25 91.8571 60.25 91.8658 60.25C91.8746 60.25 91.8833 60.25 91.8921 60.25C91.9008 60.25 91.9095 60.25 91.9183 60.25C91.927 60.25 91.9358 60.25 91.9445 60.25C91.9533 60.25 91.962 60.25 91.9708 60.25C91.9795 60.25 91.9882 60.25 91.997 60.25C92.0057 60.25 92.0145 60.25 92.0233 60.25C92.032 60.25 92.0408 60.25 92.0495 60.25C92.0583 60.25 92.067 60.25 92.0758 60.25C92.0845 60.25 92.0933 60.25 92.102 60.25C92.1108 60.25 92.1196 60.25 92.1283 60.25C92.1371 60.25 92.1459 60.25 92.1546 60.25C92.1634 60.25 92.1721 60.25 92.1809 60.25C92.1897 60.25 92.1984 60.25 92.2072 60.25C92.216 60.25 92.2248 60.25 92.2335 60.25C92.2423 60.25 92.2511 60.25 92.2598 60.25C92.2686 60.25 92.2774 60.25 92.2862 60.25C92.2949 60.25 92.3037 60.25 92.3125 60.25C92.3213 60.25 92.33 60.25 92.3388 60.25C92.3476 60.25 92.3564 60.25 92.3652 60.25C92.374 60.25 92.3827 60.25 92.3915 60.25C92.4003 60.25 92.4091 60.25 92.4179 60.25C92.4267 60.25 92.4355 60.25 92.4442 60.25C92.453 60.25 92.4618 60.25 92.4706 60.25C92.4794 60.25 92.4882 60.25 92.497 60.25C92.5058 60.25 92.5146 60.25 92.5234 60.25C92.5322 60.25 92.541 60.25 92.5498 60.25C92.5586 60.25 92.5674 60.25 92.5762 60.25C92.585 60.25 92.5938 60.25 92.6026 60.25C92.6114 60.25 92.6202 60.25 92.629 60.25C92.6378 60.25 92.6466 60.25 92.6554 60.25C92.6642 60.25 92.673 60.25 92.6819 60.25C92.6907 60.25 92.6995 60.25 92.7083 60.25C92.7171 60.25 92.7259 60.25 92.7347 60.25C92.7436 60.25 92.7524 60.25 92.7612 60.25C92.77 60.25 92.7788 60.25 92.7877 60.25C92.7965 60.25 92.8053 60.25 92.8141 60.25C92.8229 60.25 92.8318 60.25 92.8406 60.25C92.8494 60.25 92.8582 60.25 92.8671 60.25C92.8759 60.25 92.8847 60.25 92.8936 60.25C92.9024 60.25 92.9112 60.25 92.9201 60.25C92.9289 60.25 92.9377 60.25 92.9466 60.25C92.9554 60.25 92.9642 60.25 92.9731 60.25C92.9819 60.25 92.9907 60.25 92.9996 60.25C93.0084 60.25 93.0173 60.25 93.0261 60.25C93.0349 60.25 93.0438 60.25 93.0526 60.25C93.0615 60.25 93.0703 60.25 93.0792 60.25C93.088 60.25 93.0969 60.25 93.1057 60.25C93.1146 60.25 93.1234 60.25 93.1323 60.25C93.1411 60.25 93.15 60.25 93.1588 60.25C93.1677 60.25 93.1765 60.25 93.1854 60.25C93.1942 60.25 93.2031 60.25 93.212 60.25C93.2208 60.25 93.2297 60.25 93.2385 60.25C93.2474 60.25 93.2563 60.25 93.2651 60.25C93.274 60.25 93.2829 60.25 93.2917 60.25C93.3006 60.25 93.3095 60.25 93.3183 60.25C93.3272 60.25 93.3361 60.25 93.3449 60.25C93.3538 60.25 93.3627 60.25 93.3715 60.25C93.3804 60.25 93.3893 60.25 93.3982 60.25C93.407 60.25 93.4159 60.25 93.4248 60.25C93.4337 60.25 93.4426 60.25 93.4514 60.25C93.4603 60.25 93.4692 60.25 93.4781 60.25C93.487 60.25 93.4958 60.25 93.5047 60.25C93.5136 60.25 93.5225 60.25 93.5314 60.25C93.5403 60.25 93.5492 60.25 93.5581 60.25C93.5669 60.25 93.5758 60.25 93.5847 60.25C93.5936 60.25 93.6025 60.25 93.6114 60.25C93.6203 60.25 93.6292 60.25 93.6381 60.25C93.647 60.25 93.6559 60.25 93.6648 60.25C93.6737 60.25 93.6826 60.25 93.6915 60.25C93.7004 60.25 93.7093 60.25 93.7182 60.25C93.7271 60.25 93.736 60.25 93.7449 60.25V57.75C93.736 57.75 93.7271 57.75 93.7182 57.75C93.7093 57.75 93.7004 57.75 93.6915 57.75C93.6826 57.75 93.6737 57.75 93.6648 57.75C93.6559 57.75 93.647 57.75 93.6381 57.75C93.6292 57.75 93.6203 57.75 93.6114 57.75C93.6025 57.75 93.5936 57.75 93.5847 57.75C93.5758 57.75 93.5669 57.75 93.5581 57.75C93.5492 57.75 93.5403 57.75 93.5314 57.75C93.5225 57.75 93.5136 57.75 93.5047 57.75C93.4958 57.75 93.487 57.75 93.4781 57.75C93.4692 57.75 93.4603 57.75 93.4514 57.75C93.4426 57.75 93.4337 57.75 93.4248 57.75C93.4159 57.75 93.407 57.75 93.3982 57.75C93.3893 57.75 93.3804 57.75 93.3715 57.75C93.3627 57.75 93.3538 57.75 93.3449 57.75C93.3361 57.75 93.3272 57.75 93.3183 57.75C93.3095 57.75 93.3006 57.75 93.2917 57.75C93.2829 57.75 93.274 57.75 93.2651 57.75C93.2563 57.75 93.2474 57.75 93.2385 57.75C93.2297 57.75 93.2208 57.75 93.212 57.75C93.2031 57.75 93.1942 57.75 93.1854 57.75C93.1765 57.75 93.1677 57.75 93.1588 57.75C93.15 57.75 93.1411 57.75 93.1323 57.75C93.1234 57.75 93.1146 57.75 93.1057 57.75C93.0969 57.75 93.088 57.75 93.0792 57.75C93.0703 57.75 93.0615 57.75 93.0526 57.75C93.0438 57.75 93.0349 57.75 93.0261 57.75C93.0173 57.75 93.0084 57.75 92.9996 57.75C92.9907 57.75 92.9819 57.75 92.9731 57.75C92.9642 57.75 92.9554 57.75 92.9466 57.75C92.9377 57.75 92.9289 57.75 92.9201 57.75C92.9112 57.75 92.9024 57.75 92.8936 57.75C92.8847 57.75 92.8759 57.75 92.8671 57.75C92.8582 57.75 92.8494 57.75 92.8406 57.75C92.8318 57.75 92.8229 57.75 92.8141 57.75C92.8053 57.75 92.7965 57.75 92.7877 57.75C92.7788 57.75 92.77 57.75 92.7612 57.75C92.7524 57.75 92.7436 57.75 92.7347 57.75C92.7259 57.75 92.7171 57.75 92.7083 57.75C92.6995 57.75 92.6907 57.75 92.6819 57.75C92.673 57.75 92.6642 57.75 92.6554 57.75C92.6466 57.75 92.6378 57.75 92.629 57.75C92.6202 57.75 92.6114 57.75 92.6026 57.75C92.5938 57.75 92.585 57.75 92.5762 57.75C92.5674 57.75 92.5586 57.75 92.5498 57.75C92.541 57.75 92.5322 57.75 92.5234 57.75C92.5146 57.75 92.5058 57.75 92.497 57.75C92.4882 57.75 92.4794 57.75 92.4706 57.75C92.4618 57.75 92.453 57.75 92.4442 57.75C92.4355 57.75 92.4267 57.75 92.4179 57.75C92.4091 57.75 92.4003 57.75 92.3915 57.75C92.3827 57.75 92.374 57.75 92.3652 57.75C92.3564 57.75 92.3476 57.75 92.3388 57.75C92.33 57.75 92.3213 57.75 92.3125 57.75C92.3037 57.75 92.2949 57.75 92.2862 57.75C92.2774 57.75 92.2686 57.75 92.2598 57.75C92.2511 57.75 92.2423 57.75 92.2335 57.75C92.2248 57.75 92.216 57.75 92.2072 57.75C92.1984 57.75 92.1897 57.75 92.1809 57.75C92.1721 57.75 92.1634 57.75 92.1546 57.75C92.1459 57.75 92.1371 57.75 92.1283 57.75C92.1196 57.75 92.1108 57.75 92.102 57.75C92.0933 57.75 92.0845 57.75 92.0758 57.75C92.067 57.75 92.0583 57.75 92.0495 57.75C92.0408 57.75 92.032 57.75 92.0233 57.75C92.0145 57.75 92.0057 57.75 91.997 57.75C91.9882 57.75 91.9795 57.75 91.9708 57.75C91.962 57.75 91.9533 57.75 91.9445 57.75C91.9358 57.75 91.927 57.75 91.9183 57.75C91.9095 57.75 91.9008 57.75 91.8921 57.75C91.8833 57.75 91.8746 57.75 91.8658 57.75C91.8571 57.75 91.8484 57.75 91.8396 57.75C91.8309 57.75 91.8222 57.75 91.8134 57.75C91.8047 57.75 91.796 57.75 91.7872 57.75C91.7785 57.75 91.7698 57.75 91.7611 57.75C91.7523 57.75 91.7436 57.75 91.7349 57.75C91.7262 57.75 91.7174 57.75 91.7087 57.75C91.7 57.75 91.6913 57.75 91.6825 57.75C91.6738 57.75 91.6651 57.75 91.6564 57.75C91.6477 57.75 91.6389 57.75 91.6302 57.75C91.6215 57.75 91.6128 57.75 91.6041 57.75C91.5954 57.75 91.5867 57.75 91.5779 57.75C91.5692 57.75 91.5605 57.75 91.5518 57.75C91.5431 57.75 91.5344 57.75 91.5257 57.75C91.517 57.75 91.5083 57.75 91.4996 57.75C91.4909 57.75 91.4822 57.75 91.4735 57.75C91.4648 57.75 91.4561 57.75 91.4474 57.75C91.4387 57.75 91.43 57.75 91.4213 57.75C91.4126 57.75 91.4039 57.75 91.3952 57.75C91.3865 57.75 91.3778 57.75 91.3691 57.75C91.3604 57.75 91.3517 57.75 91.343 57.75C91.3343 57.75 91.3256 57.75 91.317 57.75C91.3083 57.75 91.2996 57.75 91.2909 57.75C91.2822 57.75 91.2735 57.75 91.2649 57.75C91.2562 57.75 91.2475 57.75 91.2388 57.75C91.2301 57.75 91.2214 57.75 91.2128 57.75C91.2041 57.75 91.1954 57.75 91.1867 57.75C91.1781 57.75 91.1694 57.75 91.1607 57.75C91.152 57.75 91.1434 57.75 91.1347 57.75C91.126 57.75 91.1174 57.75 91.1087 57.75C91.1 57.75 91.0914 57.75 91.0827 57.75C91.074 57.75 91.0654 57.75 91.0567 57.75C91.048 57.75 91.0394 57.75 91.0307 57.75C91.022 57.75 91.0134 57.75 91.0047 57.75C90.9961 57.75 90.9874 57.75 90.9788 57.75C90.9701 57.75 90.9614 57.75 90.9528 57.75C90.9441 57.75 90.9355 57.75 90.9268 57.75C90.9182 57.75 90.9095 57.75 90.9009 57.75C90.8922 57.75 90.8836 57.75 90.8749 57.75C90.8663 57.75 90.8576 57.75 90.849 57.75C90.8403 57.75 90.8317 57.75 90.8231 57.75C90.8144 57.75 90.8058 57.75 90.7971 57.75C90.7885 57.75 90.7799 57.75 90.7712 57.75C90.7626 57.75 90.7539 57.75 90.7453 57.75C90.7367 57.75 90.728 57.75 90.7194 57.75C90.7108 57.75 90.7021 57.75 90.6935 57.75C90.6849 57.75 90.6763 57.75 90.6676 57.75C90.659 57.75 90.6504 57.75 90.6417 57.75C90.6331 57.75 90.6245 57.75 90.6159 57.75C90.6073 57.75 90.5986 57.75 90.59 57.75C90.5814 57.75 90.5728 57.75 90.5641 57.75C90.5555 57.75 90.5469 57.75 90.5383 57.75C90.5297 57.75 90.5211 57.75 90.5125 57.75C90.5038 57.75 90.4952 57.75 90.4866 57.75C90.478 57.75 90.4694 57.75 90.4608 57.75C90.4522 57.75 90.4436 57.75 90.435 57.75C90.4264 57.75 90.4177 57.75 90.4091 57.75C90.4005 57.75 90.3919 57.75 90.3833 57.75C90.3747 57.75 90.3661 57.75 90.3575 57.75C90.3489 57.75 90.3403 57.75 90.3317 57.75C90.3231 57.75 90.3145 57.75 90.3059 57.75C90.2974 57.75 90.2888 57.75 90.2802 57.75C90.2716 57.75 90.263 57.75 90.2544 57.75C90.2458 57.75 90.2372 57.75 90.2286 57.75C90.22 57.75 90.2115 57.75 90.2029 57.75C90.1943 57.75 90.1857 57.75 90.1771 57.75C90.1685 57.75 90.16 57.75 90.1514 57.75C90.1428 57.75 90.1342 57.75 90.1256 57.75C90.1171 57.75 90.1085 57.75 90.0999 57.75C90.0913 57.75 90.0828 57.75 90.0742 57.75C90.0656 57.75 90.057 57.75 90.0485 57.75C90.0399 57.75 90.0313 57.75 90.0228 57.75C90.0142 57.75 90.0056 57.75 89.997 57.75C89.9885 57.75 89.9799 57.75 89.9714 57.75C89.9628 57.75 89.9542 57.75 89.9457 57.75C89.9371 57.75 89.9285 57.75 89.92 57.75C89.9114 57.75 89.9029 57.75 89.8943 57.75C89.8858 57.75 89.8772 57.75 89.8686 57.75C89.8601 57.75 89.8515 57.75 89.843 57.75C89.8344 57.75 89.8259 57.75 89.8173 57.75C89.8088 57.75 89.8002 57.75 89.7917 57.75C89.7831 57.75 89.7746 57.75 89.7661 57.75C89.7575 57.75 89.749 57.75 89.7404 57.75C89.7319 57.75 89.7233 57.75 89.7148 57.75C89.7063 57.75 89.6977 57.75 89.6892 57.75C89.6806 57.75 89.6721 57.75 89.6636 57.75C89.655 57.75 89.6465 57.75 89.638 57.75C89.6294 57.75 89.6209 57.75 89.6124 57.75C89.6038 57.75 89.5953 57.75 89.5868 57.75C89.5783 57.75 89.5697 57.75 89.5612 57.75C89.5527 57.75 89.5442 57.75 89.5356 57.75C89.5271 57.75 89.5186 57.75 89.5101 57.75C89.5015 57.75 89.493 57.75 89.4845 57.75C89.476 57.75 89.4675 57.75 89.459 57.75C89.4504 57.75 89.4419 57.75 89.4334 57.75C89.4249 57.75 89.4164 57.75 89.4079 57.75C89.3994 57.75 89.3908 57.75 89.3823 57.75C89.3738 57.75 89.3653 57.75 89.3568 57.75C89.3483 57.75 89.3398 57.75 89.3313 57.75C89.3228 57.75 89.3143 57.75 89.3058 57.75C89.2973 57.75 89.2888 57.75 89.2803 57.75C89.2718 57.75 89.2633 57.75 89.2548 57.75C89.2463 57.75 89.2378 57.75 89.2293 57.75C89.2208 57.75 89.2123 57.75 89.2038 57.75C89.1953 57.75 89.1868 57.75 89.1783 57.75C89.1699 57.75 89.1614 57.75 89.1529 57.75C89.1444 57.75 89.1359 57.75 89.1274 57.75C89.1189 57.75 89.1105 57.75 89.102 57.75C89.0935 57.75 89.085 57.75 89.0765 57.75C89.068 57.75 89.0596 57.75 89.0511 57.75C89.0426 57.75 89.0341 57.75 89.0257 57.75C89.0172 57.75 89.0087 57.75 89.0002 57.75C88.9918 57.75 88.9833 57.75 88.9748 57.75C88.9663 57.75 88.9579 57.75 88.9494 57.75C88.9409 57.75 88.9325 57.75 88.924 57.75C88.9155 57.75 88.9071 57.75 88.8986 57.75C88.8901 57.75 88.8817 57.75 88.8732 57.75C88.8648 57.75 88.8563 57.75 88.8478 57.75C88.8394 57.75 88.8309 57.75 88.8225 57.75C88.814 57.75 88.8055 57.75 88.7971 57.75C88.7886 57.75 88.7802 57.75 88.7717 57.75C88.7633 57.75 88.7548 57.75 88.7464 57.75C88.7379 57.75 88.7295 57.75 88.721 57.75C88.7126 57.75 88.7041 57.75 88.6957 57.75C88.6873 57.75 88.6788 57.75 88.6704 57.75C88.6619 57.75 88.6535 57.75 88.645 57.75C88.6366 57.75 88.6282 57.75 88.6197 57.75C88.6113 57.75 88.6029 57.75 88.5944 57.75C88.586 57.75 88.5775 57.75 88.5691 57.75C88.5607 57.75 88.5522 57.75 88.5438 57.75C88.5354 57.75 88.527 57.75 88.5185 57.75C88.5101 57.75 88.5017 57.75 88.4932 57.75C88.4848 57.75 88.4764 57.75 88.468 57.75C88.4596 57.75 88.4511 57.75 88.4427 57.75C88.4343 57.75 88.4259 57.75 88.4174 57.75C88.409 57.75 88.4006 57.75 88.3922 57.75C88.3838 57.75 88.3754 57.75 88.3669 57.75C88.3585 57.75 88.3501 57.75 88.3417 57.75C88.3333 57.75 88.3249 57.75 88.3165 57.75C88.3081 57.75 88.2997 57.75 88.2913 57.75C88.2828 57.75 88.2744 57.75 88.266 57.75C88.2576 57.75 88.2492 57.75 88.2408 57.75C88.2324 57.75 88.224 57.75 88.2156 57.75C88.2072 57.75 88.1988 57.75 88.1904 57.75C88.182 57.75 88.1736 57.75 88.1652 57.75C88.1568 57.75 88.1485 57.75 88.1401 57.75C88.1317 57.75 88.1233 57.75 88.1149 57.75C88.1065 57.75 88.0981 57.75 88.0897 57.75C88.0813 57.75 88.0729 57.75 88.0646 57.75C88.0562 57.75 88.0478 57.75 88.0394 57.75C88.031 57.75 88.0226 57.75 88.0143 57.75C88.0059 57.75 87.9975 57.75 87.9891 57.75C87.9807 57.75 87.9724 57.75 87.964 57.75C87.9556 57.75 87.9472 57.75 87.9389 57.75C87.9305 57.75 87.9221 57.75 87.9137 57.75C87.9054 57.75 87.897 57.75 87.8886 57.75C87.8803 57.75 87.8719 57.75 87.8635 57.75C87.8552 57.75 87.8468 57.75 87.8384 57.75C87.8301 57.75 87.8217 57.75 87.8134 57.75C87.805 57.75 87.7966 57.75 87.7883 57.75C87.7799 57.75 87.7716 57.75 87.7632 57.75C87.7548 57.75 87.7465 57.75 87.7381 57.75C87.7298 57.75 87.7214 57.75 87.7131 57.75C87.7047 57.75 87.6964 57.75 87.688 57.75C87.6797 57.75 87.6713 57.75 87.663 57.75C87.6546 57.75 87.6463 57.75 87.6379 57.75C87.6296 57.75 87.6212 57.75 87.6129 57.75C87.6046 57.75 87.5962 57.75 87.5879 57.75C87.5795 57.75 87.5712 57.75 87.5629 57.75C87.5545 57.75 87.5462 57.75 87.5378 57.75C87.5295 57.75 87.5212 57.75 87.5128 57.75C87.5045 57.75 87.4962 57.75 87.4878 57.75C87.4795 57.75 87.4712 57.75 87.4629 57.75C87.4545 57.75 87.4462 57.75 87.4379 57.75C87.4296 57.75 87.4212 57.75 87.4129 57.75C87.4046 57.75 87.3963 57.75 87.3879 57.75C87.3796 57.75 87.3713 57.75 87.363 57.75C87.3547 57.75 87.3463 57.75 87.338 57.75C87.3297 57.75 87.3214 57.75 87.3131 57.75C87.3048 57.75 87.2964 57.75 87.2881 57.75C87.2798 57.75 87.2715 57.75 87.2632 57.75C87.2549 57.75 87.2466 57.75 87.2383 57.75C87.23 57.75 87.2217 57.75 87.2134 57.75C87.2051 57.75 87.1968 57.75 87.1885 57.75C87.1802 57.75 87.1719 57.75 87.1636 57.75C87.1553 57.75 87.147 57.75 87.1387 57.75C87.1304 57.75 87.1221 57.75 87.1138 57.75C87.1055 57.75 87.0972 57.75 87.0889 57.75C87.0806 57.75 87.0723 57.75 87.064 57.75C87.0557 57.75 87.0474 57.75 87.0391 57.75C87.0309 57.75 87.0226 57.75 87.0143 57.75C87.006 57.75 86.9977 57.75 86.9894 57.75C86.9811 57.75 86.9729 57.75 86.9646 57.75C86.9563 57.75 86.948 57.75 86.9397 57.75C86.9315 57.75 86.9232 57.75 86.9149 57.75C86.9066 57.75 86.8984 57.75 86.8901 57.75C86.8818 57.75 86.8735 57.75 86.8653 57.75C86.857 57.75 86.8487 57.75 86.8405 57.75C86.8322 57.75 86.8239 57.75 86.8157 57.75C86.8074 57.75 86.7991 57.75 86.7909 57.75C86.7826 57.75 86.7743 57.75 86.7661 57.75C86.7578 57.75 86.7495 57.75 86.7413 57.75C86.733 57.75 86.7248 57.75 86.7165 57.75C86.7083 57.75 86.7 57.75 86.6917 57.75C86.6835 57.75 86.6752 57.75 86.667 57.75C86.6587 57.75 86.6505 57.75 86.6422 57.75C86.634 57.75 86.6257 57.75 86.6175 57.75C86.6092 57.75 86.601 57.75 86.5927 57.75C86.5845 57.75 86.5763 57.75 86.568 57.75C86.5598 57.75 86.5515 57.75 86.5433 57.75C86.5351 57.75 86.5268 57.75 86.5186 57.75C86.5103 57.75 86.5021 57.75 86.4939 57.75C86.4856 57.75 86.4774 57.75 86.4692 57.75C86.4609 57.75 86.4527 57.75 86.4445 57.75C86.4362 57.75 86.428 57.75 86.4198 57.75C86.4115 57.75 86.4033 57.75 86.3951 57.75C86.3869 57.75 86.3786 57.75 86.3704 57.75C86.3622 57.75 86.354 57.75 86.3458 57.75C86.3375 57.75 86.3293 57.75 86.3211 57.75C86.3129 57.75 86.3047 57.75 86.2964 57.75C86.2882 57.75 86.28 57.75 86.2718 57.75C86.2636 57.75 86.2554 57.75 86.2472 57.75C86.2389 57.75 86.2307 57.75 86.2225 57.75C86.2143 57.75 86.2061 57.75 86.1979 57.75C86.1897 57.75 86.1815 57.75 86.1733 57.75C86.1651 57.75 86.1569 57.75 86.1487 57.75C86.1405 57.75 86.1323 57.75 86.1241 57.75C86.1159 57.75 86.1077 57.75 86.0995 57.75C86.0913 57.75 86.0831 57.75 86.0749 57.75C86.0667 57.75 86.0585 57.75 86.0503 57.75C86.0421 57.75 86.0339 57.75 86.0257 57.75C86.0175 57.75 86.0093 57.75 86.0012 57.75C85.993 57.75 85.9848 57.75 85.9766 57.75C85.9684 57.75 85.9602 57.75 85.952 57.75C85.9439 57.75 85.9357 57.75 85.9275 57.75C85.9193 57.75 85.9111 57.75 85.903 57.75C85.8948 57.75 85.8866 57.75 85.8784 57.75C85.8702 57.75 85.8621 57.75 85.8539 57.75C85.8457 57.75 85.8376 57.75 85.8294 57.75C85.8212 57.75 85.813 57.75 85.8049 57.75C85.7967 57.75 85.7885 57.75 85.7804 57.75C85.7722 57.75 85.764 57.75 85.7559 57.75C85.7477 57.75 85.7395 57.75 85.7314 57.75C85.7232 57.75 85.7151 57.75 85.7069 57.75C85.6987 57.75 85.6906 57.75 85.6824 57.75C85.6743 57.75 85.6661 57.75 85.658 57.75C85.6498 57.75 85.6416 57.75 85.6335 57.75C85.6253 57.75 85.6172 57.75 85.609 57.75C85.6009 57.75 85.5927 57.75 85.5846 57.75C85.5764 57.75 85.5683 57.75 85.5602 57.75C85.552 57.75 85.5439 57.75 85.5357 57.75C85.5276 57.75 85.5194 57.75 85.5113 57.75C85.5032 57.75 85.495 57.75 85.4869 57.75C85.4787 57.75 85.4706 57.75 85.4625 57.75C85.4543 57.75 85.4462 57.75 85.4381 57.75C85.4299 57.75 85.4218 57.75 85.4137 57.75C85.4055 57.75 85.3974 57.75 85.3893 57.75C85.3811 57.75 85.373 57.75 85.3649 57.75C85.3568 57.75 85.3486 57.75 85.3405 57.75C85.3324 57.75 85.3243 57.75 85.3162 57.75C85.308 57.75 85.2999 57.75 85.2918 57.75C85.2837 57.75 85.2756 57.75 85.2674 57.75C85.2593 57.75 85.2512 57.75 85.2431 57.75C85.235 57.75 85.2269 57.75 85.2188 57.75C85.2106 57.75 85.2025 57.75 85.1944 57.75C85.1863 57.75 85.1782 57.75 85.1701 57.75C85.162 57.75 85.1539 57.75 85.1458 57.75C85.1377 57.75 85.1296 57.75 85.1215 57.75C85.1134 57.75 85.1053 57.75 85.0972 57.75C85.0891 57.75 85.081 57.75 85.0729 57.75C85.0648 57.75 85.0567 57.75 85.0486 57.75C85.0405 57.75 85.0324 57.75 85.0243 57.75C85.0162 57.75 85.0081 57.75 85 57.75C84.9919 57.75 84.9838 57.75 84.9757 57.75C84.9677 57.75 84.9596 57.75 84.9515 57.75C84.9434 57.75 84.9353 57.75 84.9272 57.75C84.9192 57.75 84.9111 57.75 84.903 57.75C84.8949 57.75 84.8868 57.75 84.8787 57.75C84.8707 57.75 84.8626 57.75 84.8545 57.75C84.8464 57.75 84.8384 57.75 84.8303 57.75C84.8222 57.75 84.8141 57.75 84.8061 57.75C84.798 57.75 84.7899 57.75 84.7819 57.75C84.7738 57.75 84.7657 57.75 84.7577 57.75C84.7496 57.75 84.7415 57.75 84.7335 57.75C84.7254 57.75 84.7173 57.75 84.7093 57.75C84.7012 57.75 84.6931 57.75 84.6851 57.75C84.677 57.75 84.669 57.75 84.6609 57.75C84.6529 57.75 84.6448 57.75 84.6367 57.75C84.6287 57.75 84.6206 57.75 84.6126 57.75C84.6045 57.75 84.5965 57.75 84.5884 57.75C84.5804 57.75 84.5723 57.75 84.5643 57.75C84.5562 57.75 84.5482 57.75 84.5401 57.75C84.5321 57.75 84.5241 57.75 84.516 57.75C84.508 57.75 84.4999 57.75 84.4919 57.75C84.4838 57.75 84.4758 57.75 84.4678 57.75C84.4597 57.75 84.4517 57.75 84.4437 57.75C84.4356 57.75 84.4276 57.75 84.4196 57.75C84.4115 57.75 84.4035 57.75 84.3955 57.75C84.3874 57.75 84.3794 57.75 84.3714 57.75C84.3633 57.75 84.3553 57.75 84.3473 57.75C84.3393 57.75 84.3312 57.75 84.3232 57.75C84.3152 57.75 84.3072 57.75 84.2991 57.75C84.2911 57.75 84.2831 57.75 84.2751 57.75C84.2671 57.75 84.259 57.75 84.251 57.75C84.243 57.75 84.235 57.75 84.227 57.75C84.219 57.75 84.211 57.75 84.2029 57.75C84.1949 57.75 84.1869 57.75 84.1789 57.75C84.1709 57.75 84.1629 57.75 84.1549 57.75C84.1469 57.75 84.1389 57.75 84.1309 57.75C84.1229 57.75 84.1149 57.75 84.1069 57.75C84.0988 57.75 84.0908 57.75 84.0828 57.75C84.0748 57.75 84.0668 57.75 84.0589 57.75C84.0509 57.75 84.0429 57.75 84.0349 57.75C84.0269 57.75 84.0189 57.75 84.0109 57.75C84.0029 57.75 83.9949 57.75 83.9869 57.75C83.9789 57.75 83.9709 57.75 83.9629 57.75C83.9549 57.75 83.947 57.75 83.939 57.75C83.931 57.75 83.923 57.75 83.915 57.75C83.907 57.75 83.8991 57.75 83.8911 57.75C83.8831 57.75 83.8751 57.75 83.8671 57.75C83.8592 57.75 83.8512 57.75 83.8432 57.75C83.8352 57.75 83.8272 57.75 83.8193 57.75C83.8113 57.75 83.8033 57.75 83.7954 57.75C83.7874 57.75 83.7794 57.75 83.7714 57.75C83.7635 57.75 83.7555 57.75 83.7475 57.75C83.7396 57.75 83.7316 57.75 83.7236 57.75C83.7157 57.75 83.7077 57.75 83.6998 57.75C83.6918 57.75 83.6838 57.75 83.6759 57.75C83.6679 57.75 83.66 57.75 83.652 57.75C83.644 57.75 83.6361 57.75 83.6281 57.75C83.6202 57.75 83.6122 57.75 83.6043 57.75C83.5963 57.75 83.5884 57.75 83.5804 57.75C83.5725 57.75 83.5645 57.75 83.5566 57.75C83.5486 57.75 83.5407 57.75 83.5327 57.75C83.5248 57.75 83.5168 57.75 83.5089 57.75C83.5009 57.75 83.493 57.75 83.4851 57.75C83.4771 57.75 83.4692 57.75 83.4612 57.75C83.4533 57.75 83.4454 57.75 83.4374 57.75C83.4295 57.75 83.4216 57.75 83.4136 57.75C83.4057 57.75 83.3978 57.75 83.3898 57.75C83.3819 57.75 83.374 57.75 83.366 57.75C83.3581 57.75 83.3502 57.75 83.3423 57.75C83.3343 57.75 83.3264 57.75 83.3185 57.75C83.3106 57.75 83.3026 57.75 83.2947 57.75C83.2868 57.75 83.2789 57.75 83.271 57.75C83.263 57.75 83.2551 57.75 83.2472 57.75C83.2393 57.75 83.2314 57.75 83.2235 57.75C83.2155 57.75 83.2076 57.75 83.1997 57.75C83.1918 57.75 83.1839 57.75 83.176 57.75C83.1681 57.75 83.1602 57.75 83.1523 57.75C83.1443 57.75 83.1364 57.75 83.1285 57.75C83.1206 57.75 83.1127 57.75 83.1048 57.75C83.0969 57.75 83.089 57.75 83.0811 57.75C83.0732 57.75 83.0653 57.75 83.0574 57.75C83.0495 57.75 83.0416 57.75 83.0337 57.75C83.0258 57.75 83.0179 57.75 83.01 57.75C83.0022 57.75 82.9943 57.75 82.9864 57.75C82.9785 57.75 82.9706 57.75 82.9627 57.75C82.9548 57.75 82.9469 57.75 82.939 57.75C82.9312 57.75 82.9233 57.75 82.9154 57.75C82.9075 57.75 82.8996 57.75 82.8917 57.75C82.8839 57.75 82.876 57.75 82.8681 57.75C82.8602 57.75 82.8523 57.75 82.8445 57.75C82.8366 57.75 82.8287 57.75 82.8208 57.75C82.813 57.75 82.8051 57.75 82.7972 57.75C82.7893 57.75 82.7815 57.75 82.7736 57.75C82.7657 57.75 82.7579 57.75 82.75 57.75C82.7421 57.75 82.7343 57.75 82.7264 57.75C82.7185 57.75 82.7107 57.75 82.7028 57.75C82.695 57.75 82.6871 57.75 82.6792 57.75C82.6714 57.75 82.6635 57.75 82.6557 57.75C82.6478 57.75 82.6399 57.75 82.6321 57.75C82.6242 57.75 82.6164 57.75 82.6085 57.75C82.6007 57.75 82.5928 57.75 82.585 57.75C82.5771 57.75 82.5693 57.75 82.5614 57.75C82.5536 57.75 82.5457 57.75 82.5379 57.75C82.53 57.75 82.5222 57.75 82.5144 57.75C82.5065 57.75 82.4987 57.75 82.4908 57.75C82.483 57.75 82.4751 57.75 82.4673 57.75C82.4595 57.75 82.4516 57.75 82.4438 57.75C82.436 57.75 82.4281 57.75 82.4203 57.75C82.4125 57.75 82.4046 57.75 82.3968 57.75C82.389 57.75 82.3811 57.75 82.3733 57.75C82.3655 57.75 82.3576 57.75 82.3498 57.75C82.342 57.75 82.3342 57.75 82.3263 57.75C82.3185 57.75 82.3107 57.75 82.3029 57.75C82.2951 57.75 82.2872 57.75 82.2794 57.75C82.2716 57.75 82.2638 57.75 82.256 57.75C82.2481 57.75 82.2403 57.75 82.2325 57.75C82.2247 57.75 82.2169 57.75 82.2091 57.75C82.2013 57.75 82.1934 57.75 82.1856 57.75C82.1778 57.75 82.17 57.75 82.1622 57.75C82.1544 57.75 82.1466 57.75 82.1388 57.75C82.131 57.75 82.1232 57.75 82.1154 57.75C82.1076 57.75 82.0998 57.75 82.092 57.75C82.0842 57.75 82.0764 57.75 82.0686 57.75C82.0608 57.75 82.053 57.75 82.0452 57.75C82.0374 57.75 82.0296 57.75 82.0218 57.75C82.014 57.75 82.0062 57.75 81.9984 57.75C81.9906 57.75 81.9828 57.75 81.9751 57.75C81.9673 57.75 81.9595 57.75 81.9517 57.75C81.9439 57.75 81.9361 57.75 81.9283 57.75C81.9206 57.75 81.9128 57.75 81.905 57.75C81.8972 57.75 81.8894 57.75 81.8817 57.75C81.8739 57.75 81.8661 57.75 81.8583 57.75C81.8505 57.75 81.8428 57.75 81.835 57.75C81.8272 57.75 81.8194 57.75 81.8117 57.75C81.8039 57.75 81.7961 57.75 81.7884 57.75C81.7806 57.75 81.7728 57.75 81.7651 57.75C81.7573 57.75 81.7495 57.75 81.7418 57.75C81.734 57.75 81.7262 57.75 81.7185 57.75C81.7107 57.75 81.7029 57.75 81.6952 57.75C81.6874 57.75 81.6797 57.75 81.6719 57.75C81.6642 57.75 81.6564 57.75 81.6486 57.75C81.6409 57.75 81.6331 57.75 81.6254 57.75C81.6176 57.75 81.6099 57.75 81.6021 57.75C81.5944 57.75 81.5866 57.75 81.5789 57.75C81.5711 57.75 81.5634 57.75 81.5556 57.75C81.5479 57.75 81.5401 57.75 81.5324 57.75C81.5247 57.75 81.5169 57.75 81.5092 57.75C81.5014 57.75 81.4937 57.75 81.486 57.75C81.4782 57.75 81.4705 57.75 81.4627 57.75C81.455 57.75 81.4473 57.75 81.4395 57.75C81.4318 57.75 81.4241 57.75 81.4163 57.75C81.4086 57.75 81.4009 57.75 81.3932 57.75C81.3854 57.75 81.3777 57.75 81.37 57.75C81.3622 57.75 81.3545 57.75 81.3468 57.75C81.3391 57.75 81.3313 57.75 81.3236 57.75C81.3159 57.75 81.3082 57.75 81.3005 57.75C81.2927 57.75 81.285 57.75 81.2773 57.75C81.2696 57.75 81.2619 57.75 81.2542 57.75C81.2464 57.75 81.2387 57.75 81.231 57.75C81.2233 57.75 81.2156 57.75 81.2079 57.75C81.2002 57.75 81.1925 57.75 81.1848 57.75C81.177 57.75 81.1693 57.75 81.1616 57.75C81.1539 57.75 81.1462 57.75 81.1385 57.75C81.1308 57.75 81.1231 57.75 81.1154 57.75C81.1077 57.75 81.1 57.75 81.0923 57.75C81.0846 57.75 81.0769 57.75 81.0692 57.75C81.0615 57.75 81.0538 57.75 81.0461 57.75C81.0385 57.75 81.0308 57.75 81.0231 57.75C81.0154 57.75 81.0077 57.75 81 57.75V60.25ZM93.7449 60.25C94.0717 60.25 94.2176 60.3077 94.2627 60.3307C94.2941 60.3467 94.2946 60.3526 94.2985 60.3597C94.3116 60.3827 94.3365 60.4426 94.3529 60.5656C94.3697 60.6915 94.3712 60.823 94.3712 61H96.8712C96.8712 60.7083 96.8958 59.8739 96.4748 59.1293C95.9667 58.2306 95.0175 57.75 93.7449 57.75V60.25ZM94.3712 61C94.3712 68.3444 100.454 74.25 107.897 74.25V71.75C101.781 71.75 96.8712 66.9104 96.8712 61H94.3712ZM107.897 74.25C115.341 74.25 121.423 68.3444 121.423 61H118.923C118.923 66.9104 114.014 71.75 107.897 71.75V74.25ZM121.423 61C121.423 60.823 121.425 60.6915 121.442 60.5656C121.458 60.4426 121.483 60.3827 121.496 60.3597C121.5 60.3526 121.5 60.3467 121.532 60.3307C121.577 60.3077 121.723 60.25 122.05 60.25V57.75C120.777 57.75 119.828 58.2306 119.32 59.1293C118.899 59.8739 118.923 60.7083 118.923 61H121.423ZM122.05 60.25H147V57.75H122.05V60.25Z" fill="#2F80ED"/>
<path d="M133.1 6.30273L122 18.7559M107.1 2V18.7559V2ZM81 6.30273L92.0996 18.7559L81 6.30273Z" stroke="#2F80ED" stroke-width="2.5" stroke-linecap="round" stroke-linejoin="round"/>
</svg>
